<svg height="1in" viewBox="0 0 25.4 25.400001" width="1in" xmlns="http://www.w3.org/2000/svg" xmlns:xlink="http://www.w3.org/1999/xlink"><g transform="translate(0 -271.59998)"><g id="a" stroke-width=".431951" transform="matrix(.27207087 0 0 .27207087 -16.396938 252.54861)"><path d="m122.34767 74.089916c-2.30374-.230374-3.34042-.345561-5.06823-.345561-2.18855 0-4.26191.230374-6.1049.691121-3.11005.806309-8.63902 4.722663-13.246497 9.33014-5.644158 5.759345-7.602336 11.173129-12.094625 32.482704-3.110046 14.74393-6.104906 19.00584-13.361681 19.00584-.806308 0-2.303738 0-3.570794-.11518-1.612617 1.61261-2.303738 2.41892-4.031542 4.60747 5.298598-.23037 8.063084-.34556 11.288317-.34556 3.110046 0 9.099766.23037 17.623596.57594 18.660276.92149 19.351396.92149 22.691816.92149 5.98972 0 8.52384-1.26706 10.5972-5.52897 1.38224-2.6493 4.95304-10.5972 6.68084-14.9743l-1.26706-2.18855c-7.48714 15.78061-8.7542 16.47173-28.56635 16.35654h-21.770323c7.717523-7.25677 8.17827-7.83271 9.6757-11.17313 1.727804-4.49229 1.842991-4.95304 5.874532-22.23107 3.685981-13.82243 3.685981-13.937617 4.722661-15.780608 1.95818-3.685981 4.3771-5.068223 8.63902-5.068223 1.61262 0 2.6493 0 6.79603.230373z" stroke-width=".431951"/></g><use height="100%" transform="translate(4.155004 5.104719)" width="100%" xlink:href="#a"/></g></svg>